<?xml version="1.0" standalone="no"?>
<!DOCTYPE svg PUBLIC "-//W3C//DTD SVG 20010904//EN"
 "http://www.w3.org/TR/2001/REC-SVG-20010904/DTD/svg10.dtd">
<svg version="1.0" xmlns="http://www.w3.org/2000/svg"
 width="100.000000pt" height="100.000000pt" viewBox="0 0 100.000000 100.000000"
 preserveAspectRatio="xMidYMid meet">
<metadata>
Created by potrace 1.10, written by Peter Selinger 2001-2011
</metadata>
<g transform="translate(0.000000,100.000000) scale(0.100000,-0.100000)"
fill="#FFFFFF" stroke="none">
<path d="M172 943 c-52 -74 -55 -89 -55 -262 0 -147 2 -166 19 -178 10 -7 28
-13 41 -13 17 0 23 -6 23 -21 0 -16 -5 -20 -20 -16 -11 3 -23 1 -26 -4 -3 -5
-7 -93 -8 -195 -3 -167 -1 -189 14 -204 14 -14 26 -16 51 -11 l34 7 5 198 c3
109 2 200 -2 203 -5 2 -8 116 -8 252 0 249 -3 271 -36 271 -7 0 -21 -12 -32
-27z m42 -15 c-4 -13 -9 -108 -11 -211 -4 -187 -4 -188 -26 -185 -21 3 -22 8
-25 145 -2 136 -1 145 23 193 28 56 25 67 -5 18 -21 -35 -27 -31 -9 5 27 52
69 79 53 35z m3 -425 c-3 -3 -11 -2 -17 2 -9 6 -9 10 1 16 14 8 27 -7 16 -18z
m19 -79 l5 -29 -16 23 c-9 12 -13 27 -10 33 9 14 15 7 21 -27z m-33 -4 c9 0
12 -47 10 -172 -1 -138 -4 -173 -15 -173 -10 0 -14 36 -16 173 -1 109 -6 171
-12 167 -6 -3 -10 -1 -10 5 0 7 7 9 16 6 9 -3 21 -6 27 -6z"/>
<path d="M431 853 c-100 -52 -102 -236 -3 -298 27 -17 31 -26 32 -62 0 -36 -3
-43 -20 -43 -19 0 -20 -7 -20 -193 0 -210 2 -217 55 -217 53 0 55 7 55 216 0
170 -2 193 -16 196 -12 2 -17 15 -18 44 -1 36 3 43 26 53 46 21 73 76 73 151
-1 125 -79 197 -164 153z m89 -51 c68 -69 40 -222 -41 -222 -84 0 -118 152
-49 222 36 35 54 35 90 0z m-30 -249 c0 -10 -20 -40 -20 -31 0 3 -3 13 -6 22
-4 11 -1 16 10 16 9 0 16 -3 16 -7z m20 -128 c0 -3 -12 -2 -26 1 -19 5 -25 4
-20 -5 4 -6 12 -9 17 -6 5 4 9 -64 9 -169 0 -97 1 -179 3 -183 1 -5 -7 -9 -18
-11 -19 -3 -20 2 -17 184 3 143 0 184 -9 178 -6 -4 -4 7 6 23 17 30 18 30 36
12 11 -11 19 -21 19 -24z"/>
<path d="M468 63 c7 -3 16 -2 19 1 4 3 -2 6 -13 5 -11 0 -14 -3 -6 -6z"/>
<path d="M677 864 c-4 -4 -7 -59 -7 -123 0 -138 15 -180 68 -196 30 -8 32 -12
32 -52 0 -36 -3 -43 -20 -43 -19 0 -20 -7 -20 -193 0 -210 2 -217 55 -217 53
0 55 7 55 216 0 174 -2 192 -17 196 -14 4 -18 14 -17 43 1 32 6 39 32 51 52
21 63 57 60 197 -3 100 -6 122 -18 122 -12 0 -16 -23 -20 -126 -6 -146 -12
-159 -75 -159 -63 0 -69 13 -75 158 -5 116 -13 146 -33 126z m121 -315 c-2 -6
-8 -10 -13 -10 -5 0 -11 4 -13 10 -2 6 4 11 13 11 9 0 15 -5 13 -11z m22 -125
c0 -3 -9 -2 -20 1 -12 4 -27 1 -35 -5 -22 -18 -19 6 3 28 16 16 18 16 35 0 9
-10 17 -21 17 -24z m-20 -181 c0 -115 4 -173 11 -173 5 0 7 -5 3 -12 -6 -9 -9
-9 -12 0 -2 7 -11 12 -20 12 -15 0 -15 -2 -2 -10 13 -8 12 -10 -4 -10 -12 0
-16 5 -12 16 3 9 6 91 6 183 0 142 2 168 15 168 13 0 15 -26 15 -174z"/>
<path d="M747 863 c-4 -3 -7 -40 -7 -80 0 -66 2 -74 18 -71 13 2 18 15 20 58
5 79 -8 117 -31 93z"/>
<path d="M807 864 c-4 -4 -7 -40 -7 -81 0 -58 3 -73 15 -73 8 0 15 5 16 10 6
102 -4 163 -24 144z"/>
</g>
</svg>
